# xmcd CD database file
#
# Track frame offsets:
#	150
#	12795
#	25951
#	39059
#	50866
#	61995
#	75577
#	87834
#	102638
#	116540
#	131306
#	144482
#	157887
#	171675
#	185334
#	197012
#	209407
#	220252
#	233011
#	245761
#	258685
#	270022
#
# Disc length: 3767 seconds
#
# Revision: 0
# Processed by: cddbd v1.5.2PL0 Copyright (c) Steve Scherf et al.
# Submitted via: CDex 1.70beta2
#
DISCID=310eb516
DTITLE=Various Artist - Jazz Roads CD118 - Swing - Duke Ellington Small Groups Vol.2 (1937-38)
DYEAR=2006
DGENRE=Jazz
TTITLE0=Cootie Williams And His Rug Cutters - Jubilesta
TTITLE1=Cootie Williams And His Rug Cutters - Watchin'
TTITLE2=Cootie Williams And His Rug Cutters - Pigeons And Peppers
TTITLE3=Cootie Williams And His Rug Cutters - I Can't Give You Anything But Love
TTITLE4=Barney Bigard And His Jazzopators - Drummer's Delight
TTITLE5=Barney Bigard And His Jazzopators - If I Thought You Cared
TTITLE6=Cootie Williams And His Rug Cutters - Have A Heart (Lost In Meditation)
TTITLE7=Cootie Williams And His Rug Cutters - Echoes Of Harlem
TTITLE8=Johnny Hodges And His Orchestra - My Day
TTITLE9=Johnny Hodges And His Orchestra - Silv'ry Moon And Golden Sands
TTITLE10=Johnny Hodges And His Orchestra - Jeep's Blues
TTITLE11=Johnny Hodges And His Orchestra - If You Were In My Place
TTITLE12=Johnny Hodges And His Orchestra - I Let A Song Go Out Of My Heart
TTITLE13=Johnny Hodges And His Orchestra - Rendezvous With Rhythm
TTITLE14=Cootie Williams And His Rug Cutters - A Lesson In C
TTITLE15=Cootie Williams And His Rug Cutters - Swingtime In Honolulu
TTITLE16=Cootie Williams And His Rug Cutters - Carnival In Caroline
TTITLE17=Cootie Williams And His Rug Cutters - Ol' Man River
TTITLE18=Johnny Hodges And His Orchestra - You Walked Out Of The Picture
TTITLE19=Johnny Hodges And His Orchestra - Pyramid
TTITLE20=Johnny Hodges And His Orchestra - Empty Ballroom Blues
TTITLE21=Johnny Hodges And His Orchestra - Lost In Meditation
EXTD=YEAR: 2006
EXTT0=
EXTT1=
EXTT2=
EXTT3=
EXTT4=
EXTT5=
EXTT6=
EXTT7=
EXTT8=
EXTT9=
EXTT10=
EXTT11=
EXTT12=
EXTT13=
EXTT14=
EXTT15=
EXTT16=
EXTT17=
EXTT18=
EXTT19=
EXTT20=
EXTT21=
PLAYORDER=
